<mxfile host="app.diagrams.net" agent="Mozilla/5.0 (Windows NT 10.0; Win64; x64) AppleWebKit/537.36 (KHTML, like Gecko) Chrome/133.0.0.0 Safari/537.36" version="26.0.16">
  <diagram name="페이지-1" id="5fHedQgZ2P1-723NqCEh">
    <mxGraphModel dx="1195" dy="615" grid="1" gridSize="10" guides="1" tooltips="1" connect="1" arrows="1" fold="1" page="1" pageScale="1" pageWidth="827" pageHeight="1169" math="0" shadow="0">
      <root>
        <mxCell id="0" />
        <mxCell id="1" parent="0" />
        <mxCell id="8vpDKekODp7GkeAa5SoA-1" value="Rate Limiter" style="rounded=0;whiteSpace=wrap;html=1;fontStyle=2;fontFamily=Comic Sans MS;" vertex="1" parent="1">
          <mxGeometry x="270" y="85" width="120" height="60" as="geometry" />
        </mxCell>
        <mxCell id="8vpDKekODp7GkeAa5SoA-2" value="" style="shape=actor;whiteSpace=wrap;html=1;" vertex="1" parent="1">
          <mxGeometry x="100" y="70" width="30" height="30" as="geometry" />
        </mxCell>
        <mxCell id="8vpDKekODp7GkeAa5SoA-3" value="" style="shape=actor;whiteSpace=wrap;html=1;" vertex="1" parent="1">
          <mxGeometry x="130" y="100" width="30" height="30" as="geometry" />
        </mxCell>
        <mxCell id="8vpDKekODp7GkeAa5SoA-4" value="" style="shape=actor;whiteSpace=wrap;html=1;" vertex="1" parent="1">
          <mxGeometry x="90" y="130" width="30" height="30" as="geometry" />
        </mxCell>
        <mxCell id="8vpDKekODp7GkeAa5SoA-5" value="" style="endArrow=classic;html=1;rounded=0;" edge="1" parent="1">
          <mxGeometry width="50" height="50" relative="1" as="geometry">
            <mxPoint x="170" y="80" as="sourcePoint" />
            <mxPoint x="260" y="100" as="targetPoint" />
          </mxGeometry>
        </mxCell>
        <mxCell id="8vpDKekODp7GkeAa5SoA-6" value="" style="endArrow=classic;html=1;rounded=0;" edge="1" parent="1">
          <mxGeometry width="50" height="50" relative="1" as="geometry">
            <mxPoint x="170" y="110" as="sourcePoint" />
            <mxPoint x="260" y="110" as="targetPoint" />
          </mxGeometry>
        </mxCell>
        <mxCell id="8vpDKekODp7GkeAa5SoA-7" value="" style="endArrow=classic;html=1;rounded=0;" edge="1" parent="1">
          <mxGeometry width="50" height="50" relative="1" as="geometry">
            <mxPoint x="170" y="145" as="sourcePoint" />
            <mxPoint x="260" y="120" as="targetPoint" />
          </mxGeometry>
        </mxCell>
        <mxCell id="8vpDKekODp7GkeAa5SoA-10" value="" style="endArrow=classic;html=1;rounded=0;" edge="1" parent="1">
          <mxGeometry width="50" height="50" relative="1" as="geometry">
            <mxPoint x="400" y="110" as="sourcePoint" />
            <mxPoint x="500" y="110" as="targetPoint" />
          </mxGeometry>
        </mxCell>
        <mxCell id="8vpDKekODp7GkeAa5SoA-11" value="" style="endArrow=classic;html=1;rounded=0;" edge="1" parent="1">
          <mxGeometry width="50" height="50" relative="1" as="geometry">
            <mxPoint x="400" y="120" as="sourcePoint" />
            <mxPoint x="500" y="120" as="targetPoint" />
          </mxGeometry>
        </mxCell>
        <mxCell id="8vpDKekODp7GkeAa5SoA-12" value="" style="endArrow=classic;html=1;rounded=0;" edge="1" parent="1">
          <mxGeometry width="50" height="50" relative="1" as="geometry">
            <mxPoint x="325" y="157" as="sourcePoint" />
            <mxPoint x="325" y="212" as="targetPoint" />
          </mxGeometry>
        </mxCell>
        <mxCell id="8vpDKekODp7GkeAa5SoA-14" value="Dropped Requests" style="text;html=1;align=center;verticalAlign=middle;whiteSpace=wrap;rounded=0;fontStyle=2;fontFamily=Comic Sans MS;" vertex="1" parent="1">
          <mxGeometry x="334" y="170" width="80" height="30" as="geometry" />
        </mxCell>
        <mxCell id="8vpDKekODp7GkeAa5SoA-15" value="Accepted&lt;div&gt;Requests&lt;/div&gt;" style="text;html=1;align=center;verticalAlign=middle;whiteSpace=wrap;rounded=0;fontStyle=2;fontFamily=Comic Sans MS;" vertex="1" parent="1">
          <mxGeometry x="413.5" y="70" width="80" height="30" as="geometry" />
        </mxCell>
        <mxCell id="8vpDKekODp7GkeAa5SoA-16" value="Backend&lt;div&gt;Resources&lt;/div&gt;" style="ellipse;shape=cloud;whiteSpace=wrap;html=1;fontFamily=Comic Sans MS;" vertex="1" parent="1">
          <mxGeometry x="510" y="70" width="160" height="95" as="geometry" />
        </mxCell>
        <mxCell id="8vpDKekODp7GkeAa5SoA-17" value="" style="shape=actor;whiteSpace=wrap;html=1;" vertex="1" parent="1">
          <mxGeometry x="110" y="520" width="30" height="30" as="geometry" />
        </mxCell>
        <mxCell id="8vpDKekODp7GkeAa5SoA-18" value="" style="endArrow=classic;html=1;rounded=0;" edge="1" parent="1">
          <mxGeometry width="50" height="50" relative="1" as="geometry">
            <mxPoint x="160" y="535" as="sourcePoint" />
            <mxPoint x="260" y="535" as="targetPoint" />
          </mxGeometry>
        </mxCell>
        <mxCell id="8vpDKekODp7GkeAa5SoA-19" value="Request" style="text;html=1;align=center;verticalAlign=middle;whiteSpace=wrap;rounded=0;fontStyle=2;fontFamily=Comic Sans MS;" vertex="1" parent="1">
          <mxGeometry x="170" y="500" width="80" height="30" as="geometry" />
        </mxCell>
        <mxCell id="8vpDKekODp7GkeAa5SoA-20" value="Bucket has token?" style="rhombus;whiteSpace=wrap;html=1;fontFamily=Comic Sans MS;" vertex="1" parent="1">
          <mxGeometry x="270" y="502.5" width="100" height="65" as="geometry" />
        </mxCell>
        <mxCell id="8vpDKekODp7GkeAa5SoA-21" value="" style="verticalLabelPosition=middle;verticalAlign=middle;html=1;shape=trapezoid;perimeter=trapezoidPerimeter;whiteSpace=wrap;size=0.23;arcSize=10;flipV=1;labelPosition=center;align=center;" vertex="1" parent="1">
          <mxGeometry x="278" y="438" width="80" height="50" as="geometry" />
        </mxCell>
        <mxCell id="8vpDKekODp7GkeAa5SoA-25" value="" style="rounded=1;whiteSpace=wrap;html=1;fillColor=#dae8fc;strokeColor=#6c8ebf;" vertex="1" parent="1">
          <mxGeometry x="325" y="446" width="20" height="10" as="geometry" />
        </mxCell>
        <mxCell id="8vpDKekODp7GkeAa5SoA-27" value="" style="rounded=1;whiteSpace=wrap;html=1;fillColor=#dae8fc;strokeColor=#6c8ebf;" vertex="1" parent="1">
          <mxGeometry x="294" y="455" width="20" height="10" as="geometry" />
        </mxCell>
        <mxCell id="8vpDKekODp7GkeAa5SoA-30" value="" style="rounded=1;whiteSpace=wrap;html=1;fillColor=#dae8fc;strokeColor=#6c8ebf;" vertex="1" parent="1">
          <mxGeometry x="315" y="472" width="20" height="10" as="geometry" />
        </mxCell>
        <mxCell id="8vpDKekODp7GkeAa5SoA-31" value="" style="endArrow=classic;html=1;rounded=0;" edge="1" parent="1">
          <mxGeometry width="50" height="50" relative="1" as="geometry">
            <mxPoint x="370" y="534.5" as="sourcePoint" />
            <mxPoint x="500" y="535" as="targetPoint" />
          </mxGeometry>
        </mxCell>
        <mxCell id="8vpDKekODp7GkeAa5SoA-32" value="Yes" style="text;html=1;align=center;verticalAlign=middle;whiteSpace=wrap;rounded=0;fontStyle=2;fontFamily=Comic Sans MS;" vertex="1" parent="1">
          <mxGeometry x="354" y="502.5" width="60" height="30" as="geometry" />
        </mxCell>
        <mxCell id="8vpDKekODp7GkeAa5SoA-33" value="No" style="text;html=1;align=center;verticalAlign=middle;whiteSpace=wrap;rounded=0;fontStyle=2;fontFamily=Comic Sans MS;" vertex="1" parent="1">
          <mxGeometry x="312" y="557.5" width="60" height="30" as="geometry" />
        </mxCell>
        <mxCell id="8vpDKekODp7GkeAa5SoA-34" value="Backend&lt;div&gt;Resources&lt;/div&gt;" style="ellipse;shape=cloud;whiteSpace=wrap;html=1;fontFamily=Comic Sans MS;" vertex="1" parent="1">
          <mxGeometry x="510" y="487.5" width="160" height="95" as="geometry" />
        </mxCell>
        <mxCell id="8vpDKekODp7GkeAa5SoA-35" value="Forward request" style="text;html=1;align=center;verticalAlign=middle;whiteSpace=wrap;rounded=0;fontStyle=2;fontFamily=Comic Sans MS;" vertex="1" parent="1">
          <mxGeometry x="414" y="502.5" width="80" height="30" as="geometry" />
        </mxCell>
        <mxCell id="8vpDKekODp7GkeAa5SoA-36" value="Drop request" style="text;html=1;align=center;verticalAlign=middle;whiteSpace=wrap;rounded=0;fontStyle=2;fontFamily=Comic Sans MS;" vertex="1" parent="1">
          <mxGeometry x="325" y="587.5" width="80" height="30" as="geometry" />
        </mxCell>
        <mxCell id="8vpDKekODp7GkeAa5SoA-37" value="" style="endArrow=classic;html=1;rounded=0;" edge="1" parent="1">
          <mxGeometry width="50" height="50" relative="1" as="geometry">
            <mxPoint x="320" y="570" as="sourcePoint" />
            <mxPoint x="320" y="630" as="targetPoint" />
          </mxGeometry>
        </mxCell>
        <mxCell id="8vpDKekODp7GkeAa5SoA-41" value="" style="curved=1;endArrow=classic;html=1;rounded=0;" edge="1" parent="1">
          <mxGeometry width="50" height="50" relative="1" as="geometry">
            <mxPoint x="260" y="390" as="sourcePoint" />
            <mxPoint x="300" y="430" as="targetPoint" />
            <Array as="points">
              <mxPoint x="300" y="390" />
            </Array>
          </mxGeometry>
        </mxCell>
        <mxCell id="8vpDKekODp7GkeAa5SoA-42" value="" style="curved=1;endArrow=classic;html=1;rounded=0;" edge="1" parent="1">
          <mxGeometry width="50" height="50" relative="1" as="geometry">
            <mxPoint x="340" y="430" as="sourcePoint" />
            <mxPoint x="400" y="450" as="targetPoint" />
            <Array as="points">
              <mxPoint x="380" y="370" />
            </Array>
          </mxGeometry>
        </mxCell>
        <mxCell id="8vpDKekODp7GkeAa5SoA-43" value="" style="rounded=1;whiteSpace=wrap;html=1;fillColor=#dae8fc;strokeColor=#6c8ebf;" vertex="1" parent="1">
          <mxGeometry x="393" y="456" width="20" height="10" as="geometry" />
        </mxCell>
        <mxCell id="8vpDKekODp7GkeAa5SoA-44" value="" style="rounded=1;whiteSpace=wrap;html=1;fillColor=#dae8fc;strokeColor=#6c8ebf;" vertex="1" parent="1">
          <mxGeometry x="235" y="385" width="20" height="10" as="geometry" />
        </mxCell>
        <mxCell id="8vpDKekODp7GkeAa5SoA-47" value="Add one token per tick" style="text;html=1;align=center;verticalAlign=middle;whiteSpace=wrap;rounded=0;fontStyle=2;fontFamily=Comic Sans MS;" vertex="1" parent="1">
          <mxGeometry x="256" y="355" width="102" height="30" as="geometry" />
        </mxCell>
        <mxCell id="8vpDKekODp7GkeAa5SoA-48" value="Remove one token when request is forwarded" style="text;html=1;align=center;verticalAlign=middle;whiteSpace=wrap;rounded=0;fontStyle=2;fontFamily=Comic Sans MS;" vertex="1" parent="1">
          <mxGeometry x="400" y="385" width="140" height="30" as="geometry" />
        </mxCell>
      </root>
    </mxGraphModel>
  </diagram>
</mxfile>
